<svg width="14" height="15" viewBox="0 0 14 15" fill="none" xmlns="http://www.w3.org/2000/svg">
<path fill-rule="evenodd" clip-rule="evenodd" d="M12.9688 12.9C12.9688 13.5 12.4688 14 11.8687 14H3.06875C2.46875 14 1.96875 13.5 1.96875 12.9V5C1.96875 4.5 2.46875 4 3.06875 4H11.9688C12.5688 4 13.0688 4.5 13.0688 5.1V12.9H12.9688ZM7.46875 1C8.66875 1 9.56875 1.9 9.76875 3H5.16875C5.36875 1.9 6.26875 1 7.46875 1ZM11.8687 3H10.7688C10.5688 1.3 9.16875 0 7.46875 0C5.76875 0 4.36875 1.3 4.16875 3H3.06875C1.86875 3 0.96875 3.9 0.96875 5.1V13C0.96875 14.1 1.86875 15 3.06875 15H11.9688C13.0688 15 14.0688 14.1 14.0688 12.9V5C13.9688 3.9 13.0687 3 11.8687 3Z" fill="white"/>
</svg>
