<svg width="14" height="17" viewBox="0 0 14 17" fill="none" xmlns="http://www.w3.org/2000/svg">
<path d="M13.0729 5.52137C12.9799 5.59367 11.3481 6.51287 11.3481 8.55777C11.3481 10.9229 13.424 11.7595 13.486 11.7801C13.4757 11.8317 13.1555 12.9265 12.3912 14.0419C11.7096 15.0231 10.9969 16.0042 9.91251 16.0042C8.82811 16.0042 8.54921 15.3742 7.29951 15.3742C6.08081 15.3742 5.64701 16.0249 4.65551 16.0249C3.66401 16.0249 2.97201 15.116 2.17681 14.0006C1.25761 12.6889 0.514008 10.6543 0.514008 8.72297C0.514008 5.62457 2.52801 3.98237 4.51091 3.98237C5.56441 3.98237 6.44221 4.67437 7.10321 4.67437C7.73321 4.67437 8.71441 3.94107 9.91241 3.94107C10.3669 3.94117 11.9988 3.98257 13.0729 5.52137ZM9.34451 2.62957C9.84021 2.04087 10.1914 1.22497 10.1914 0.409067C10.1914 0.295467 10.1811 0.181867 10.1604 0.0888672C9.35481 0.119867 8.39431 0.625968 7.81591 1.29727C7.36151 1.81367 6.93801 2.62957 6.93801 3.45587C6.93801 3.57977 6.95871 3.70377 6.96901 3.74507C7.02061 3.75537 7.10331 3.76577 7.18591 3.76577C7.90891 3.76567 8.81771 3.28027 9.34451 2.62957Z" fill="white"/>
</svg>
