<svg width="14" height="15" viewBox="0 0 14 15" fill="none" xmlns="http://www.w3.org/2000/svg">
<path d="M13.1987 13.3428L9.69873 9.84283C10.5804 8.763 11.0136 7.38571 10.9086 5.9956C10.8037 4.60548 10.1687 3.30881 9.13494 2.37357C8.10114 1.43833 6.74754 0.936 5.3539 0.970408C3.96025 1.00482 2.63309 1.57333 1.64671 2.55845C0.660317 3.54357 0.0900984 4.87 0.053898 6.26359C0.0176976 7.65719 0.518282 9.01143 1.4522 10.0464C2.38611 11.0814 3.68196 11.7181 5.07194 11.8248C6.46192 11.9315 7.83977 11.5001 8.92073 10.6198L12.4207 14.1198C12.4718 14.1709 12.5325 14.2114 12.5992 14.2391C12.6659 14.2667 12.7375 14.281 12.8097 14.281C12.882 14.281 12.9535 14.2667 13.0203 14.2391C13.087 14.2114 13.1476 14.1709 13.1987 14.1198C13.2498 14.0687 13.2903 14.0081 13.318 13.9414C13.3456 13.8746 13.3599 13.8031 13.3599 13.7308C13.3599 13.6586 13.3456 13.5871 13.318 13.5203C13.2903 13.4536 13.2498 13.3929 13.1987 13.3418V13.3428ZM1.17773 6.41783C1.17793 5.56366 1.4314 4.72872 1.9061 4.0186C2.3808 3.30847 3.0554 2.75505 3.84461 2.42831C4.63382 2.10157 5.5022 2.01618 6.33994 2.18294C7.17767 2.34971 7.94715 2.76113 8.55108 3.36519C9.155 3.96926 9.56624 4.73883 9.73281 5.57661C9.89938 6.41438 9.81379 7.28274 9.48687 8.07187C9.15994 8.86101 8.60637 9.53549 7.89613 10.01C7.1859 10.4846 6.3509 10.7378 5.49673 10.7378C4.35141 10.7368 3.25332 10.2813 2.44355 9.4713C1.63378 8.66135 1.17852 7.56315 1.17773 6.41783Z" fill="white"/>
</svg>
